<svg width="336" height="49" viewBox="0 0 336 49" fill="none" xmlns="http://www.w3.org/2000/svg">
<path fill-rule="evenodd" clip-rule="evenodd" d="M70.4826 12.0751H70.4791C70.4264 12.0751 70.3771 12.0716 70.3279 12.0646C69.6845 11.9837 69.1853 11.4352 69.1853 10.7672C69.1853 10.0464 69.7689 9.4593 70.4932 9.4593C71.2174 9.4593 71.8011 10.0429 71.8011 10.7672C71.8011 11.4915 71.2174 12.0751 70.4932 12.0751H70.4861H70.4826ZM73.1863 24.6443L81.1603 35.5575C80.6575 32.7519 79.2934 28.575 81.4697 25.8045L72.4199 13.5693L73.6117 12.5533L77.0714 17.2083L78.534 16.1781L69.5685 3.41553L63.8376 11.4774L63.7673 11.6848L64.8783 13.2107L65.476 14.0369L73.1898 24.6478L73.1863 24.6443Z" fill="white"/>
<path fill-rule="evenodd" clip-rule="evenodd" d="M86.5573 29.8758C86.5573 30.4981 86.0545 31.0009 85.4322 31.0009C84.8099 31.0009 84.3071 30.4981 84.3071 29.8758C84.3071 29.2535 84.8099 28.7507 85.4322 28.7507C86.0545 28.7507 86.5573 29.257 86.5573 29.8758ZM83.8571 32.9592L75.0253 46.2105L92.6327 45.7323C94.0109 45.5565 95.1817 44.6354 95.6704 43.331C96.1591 42.0301 95.8849 40.564 94.9602 39.5233L84.9998 25.3685L79.174 17.0851L77.7254 18.1047L83.6673 26.5111C83.1153 27.1897 82.7461 28.0054 82.616 28.8913C82.3945 30.3645 82.8516 31.8623 83.8571 32.9592Z" fill="white"/>
<path fill-rule="evenodd" clip-rule="evenodd" d="M50.4527 46.0176L68.4856 21.3222L62.6141 13.2673L38.6992 46.0176H50.4527Z" fill="white"/>
<path fill-rule="evenodd" clip-rule="evenodd" d="M31.1681 46.0172L62.2448 3.41553H50.4948L19.4146 46.0172H31.1681Z" fill="white"/>
<path fill-rule="evenodd" clip-rule="evenodd" d="M11.7535 46.0172L42.8302 3.41553H31.0802L0 46.0172H11.7535Z" fill="white"/>
<path d="M119.188 47.4934V40.8554H117.004V39.6389H122.703V40.8554H120.52V47.4934H119.188Z" fill="white"/>
<path d="M125.847 47.4936V39.6392H131.215V40.8557H127.176V42.7753H130.864V43.9918H127.176V46.2841H131.215V47.5006H125.847V47.4936Z" fill="white"/>
<path d="M134.735 47.4936V39.6392H139.306L140.487 40.8205V43.4187L139.411 44.4946L140.744 47.4901H139.232L137.994 44.6036H136.064V47.4901H134.731L134.735 47.4936ZM136.064 43.4328H138.687L139.154 42.9652V41.2811L138.687 40.8135H136.064V43.4363V43.4328Z" fill="white"/>
<path d="M144.259 47.4936V39.6392H148.83L150.011 40.8205V43.4187L148.935 44.4946L150.268 47.4901H148.756L147.519 44.6036H145.588V47.4901H144.256L144.259 47.4936ZM145.592 43.4328H148.215L148.682 42.9652V41.2811L148.215 40.8135H145.592V43.4363V43.4328Z" fill="white"/>
<path d="M152.922 47.4936L155.478 39.6392H157.472L160.028 47.4936H158.611L158.024 45.588H154.923L154.336 47.4936H152.919H152.922ZM155.278 44.4137H157.665L156.6 40.9084H156.343L155.278 44.4137Z" fill="white"/>
<path d="M163.118 47.4936V39.6392H167.541L168.723 40.8205V43.6015L167.541 44.7829H164.451V47.4901H163.118V47.4936ZM164.451 43.6121H166.912L167.39 43.1445L167.38 41.2811L166.912 40.8135H164.451V43.6156V43.6121Z" fill="white"/>
<path d="M171.918 47.4936V39.6392H173.251V46.2771H177.055V47.4936H171.918Z" fill="white"/>
<path d="M180.146 47.4936V39.6392H185.514V40.8557H181.475V42.7753H185.163V43.9918H181.475V46.2841H185.514V47.5006H180.146V47.4936Z" fill="white"/>
<path d="M189.03 47.4936V39.6392H190.746L193.858 45.1274V39.6392H195.201V47.4936H193.742L190.63 42.0053H190.363V47.4936H189.03Z" fill="white"/>
<path d="M198.291 47.4936L200.847 39.6392H202.841L205.397 47.4936H203.98L203.393 45.588H200.292L199.704 47.4936H198.287H198.291ZM200.647 44.4137H203.034L201.969 40.9084H201.712L200.647 44.4137Z" fill="white"/>
<path d="M209.31 47.4938L208.16 46.3124V40.8242L209.341 39.6428H213.241L214.327 40.7187L213.476 41.5695L212.71 40.8136H209.96L209.493 41.2812L209.503 45.8518L209.96 46.3194H212.007L213.234 45.2225V44.347H211.444V43.1763H214.341V47.4902H213.234V46.6816L212.337 47.4902H209.31V47.4938Z" fill="white"/>
<path d="M218.173 47.4936V39.6392H223.542V40.8557H219.502V42.7753H223.19V43.9918H219.502V46.2841H223.542V47.5006H218.173V47.4936Z" fill="white"/>
<path d="M227.061 47.4936V39.6392H228.745L231.002 45.3384L233.249 39.6392H234.933V47.4936H233.601V42.0053L231.375 47.4936H230.619L228.394 42.0053V47.4936H227.061Z" fill="white"/>
<path d="M243.428 47.4936V39.6392H248.796V40.8557H244.757V42.7753H248.445V43.9918H244.757V46.2841H248.796V47.5006H243.428V47.4936Z" fill="white"/>
<path d="M256.971 47.4938V46.2773L260.87 46.2667L261.338 45.7991L261.327 44.4771L260.87 44.0095H257.885L256.704 42.8282V40.8242L257.885 39.6428H262.231V40.8593L258.511 40.8699L258.033 41.3269L258.043 42.3711L258.511 42.8493L261.485 42.8387L262.667 44.0201V46.3124L261.485 47.4938H256.967H256.971Z" fill="white"/>
<path d="M266.239 47.4936V39.6392H271.607V40.8557H267.568V42.7753H271.256V43.9918H267.568V46.2841H271.607V47.5006H266.239V47.4936Z" fill="white"/>
<path d="M275.127 47.4936V39.6392H279.697L280.879 40.8205V43.4187L279.803 44.4946L281.135 47.4901H279.624L278.386 44.6036H276.456V47.4901H275.123L275.127 47.4936ZM276.459 43.4328H279.082L279.55 42.9652V41.2811L279.082 40.8135H276.459V43.4363V43.4328Z" fill="white"/>
<path d="M286.346 47.4936L283.79 39.6392H285.207L287.211 46.2244H287.467L289.482 39.6392H290.899L288.343 47.4936H286.349H286.346Z" fill="white"/>
<path d="M293.771 47.4938V46.2773H294.569V40.8523H293.771V39.6359H296.7V40.8523H295.902V46.2773H296.7V47.4938H293.771Z" fill="white"/>
<path d="M302.434 48.8226L302.649 47.4901H301.295L300.114 46.3088V40.8205L301.295 39.6392H305.004L306.08 40.715L305.24 41.5659L304.463 40.8099H301.917L301.45 41.2776L301.46 45.8482L301.917 46.3158H304.561L305.338 45.5493L306.179 46.4142L305.103 47.4901H303.749L303.345 48.8226H302.438H302.434Z" fill="white"/>
<path d="M310.341 47.4938L309.16 46.3124V40.8242L310.341 39.6428H314.188L315.369 40.8242V46.3124L314.188 47.4938H310.341ZM310.971 46.3194H313.569L314.037 45.8518L314.026 41.2812L313.569 40.8136H310.96L310.493 41.2812L310.503 45.8518L310.971 46.3194Z" fill="white"/>
<path d="M318.875 47.4938V46.2773L322.774 46.2667L323.241 45.7991L323.231 44.4771L322.774 44.0095H319.789L318.607 42.8282V40.8242L319.789 39.6428H324.134V40.8593L320.414 40.8699L319.936 41.3269L319.947 42.3711L320.414 42.8493L323.389 42.8387L324.57 44.0201V46.3124L323.389 47.4938H318.871H318.875Z" fill="white"/>
<path d="M117.004 0.803101H124.053L130.737 19.8661L137.421 0.803101H144.488L144.47 29.4539H139.541V9.03726L132.875 29.4539H128.617L121.933 9.05483V29.4539H117.004V0.803101Z" fill="white"/>
<path d="M149.688 0.803223H168.768V5.73246H154.613V12.6657H165.653V17.595H154.613V24.5283H168.768V29.4575H149.688V0.806742V0.803223Z" fill="white"/>
<path d="M173.986 0.803223H178.915V24.5247H193.07V29.454H173.989V0.803223H173.986Z" fill="white"/>
<path d="M198.287 4.90975L202.394 0.803223H214.791L218.897 4.90975V25.3475L214.791 29.454H202.394L198.287 25.3475V4.90975ZM203.213 22.8653L204.876 24.5283H212.305L213.968 22.8653V7.39547L212.305 5.73246H204.876L203.213 7.39547V22.8653Z" fill="white"/>
<path d="M237.489 20.5732H242.419V22.8655L244.082 24.5285H251.511L253.191 22.848V19.2758L251.528 17.5953H241.596L237.489 13.4887V4.91353L241.596 0.807007H253.993L258.099 4.91353V9.68807H253.17V7.39573L251.507 5.71515H244.096L242.433 7.39573V11.0065L244.075 12.6695H253.989L258.096 16.7761V25.3512L253.989 29.4578H241.592L237.486 25.3512V20.5767L237.489 20.5732Z" fill="white"/>
<path d="M263.296 0.803223H268.225V29.454H263.296V0.803223Z" fill="white"/>
<path d="M273.442 0.803223H278.372V24.5247H292.523V29.454H273.442V0.803223Z" fill="white"/>
<path d="M314.891 0.803223L306.354 29.454H300.205L291.686 0.803223H296.805L303.299 22.693L309.754 0.803223H314.891Z" fill="white"/>
<path d="M312.795 29.454L321.332 0.803223H327.481L336 29.454H330.881L328.972 23.1325H319.802L317.932 29.454H312.795ZM321.219 18.2032H327.562L324.391 7.56423L321.219 18.2032Z" fill="white"/>
</svg>
