<svg width="53" height="53" viewBox="0 0 53 53" fill="none" xmlns="http://www.w3.org/2000/svg">
<circle cx="26.3309" cy="26.3309" r="26.3309" fill="#1CCA40"/>
<path fill-rule="evenodd" clip-rule="evenodd" d="M32.3208 28.9256C31.9946 28.7633 30.3955 27.9812 30.0978 27.8723C29.8001 27.7645 29.5833 27.7111 29.3655 28.0357C29.1488 28.3581 28.526 29.088 28.3366 29.3036C28.1462 29.5204 27.9568 29.5466 27.6318 29.3853C27.3067 29.2219 26.2581 28.881 25.0158 27.7786C24.0493 26.9202 23.3959 25.8604 23.2065 25.5357C23.0172 25.2122 23.1857 25.0368 23.3488 24.8756C23.4955 24.7308 23.6739 24.4976 23.837 24.3092C24.0001 24.1197 24.0537 23.9846 24.1621 23.7678C24.2715 23.5521 24.2168 23.3637 24.1347 23.2014C24.0537 23.0391 23.4035 21.4454 23.1321 20.7973C22.8683 20.1666 22.6001 20.2526 22.4009 20.2417C22.2105 20.233 21.9938 20.2308 21.777 20.2308C21.5603 20.2308 21.2079 20.3115 20.9102 20.6361C20.6113 20.9596 19.7718 21.7428 19.7718 23.3364C19.7718 24.929 20.9364 26.4682 21.0995 26.685C21.2626 26.9006 23.3926 30.1707 26.6554 31.5726C27.4326 31.906 28.0378 32.1053 28.5096 32.2535C29.2889 32.5007 29.9982 32.4659 30.5586 32.382C31.1825 32.2894 32.4828 31.5988 32.7542 30.8428C33.0246 30.0868 33.0246 29.4387 32.9436 29.3036C32.8626 29.1686 32.6459 29.088 32.3197 28.9256H32.3208ZM26.3862 36.9897H26.3818C24.4438 36.9901 22.5414 36.4716 20.874 35.4887L20.48 35.2556L16.3842 36.3253L17.4777 32.3515L17.2204 31.9441C16.137 30.2277 15.5636 28.2413 15.5666 26.2144C15.5688 20.2777 20.422 15.4477 26.3905 15.4477C29.2801 15.4477 31.9968 16.5697 34.0392 18.6045C35.0466 19.603 35.8451 20.7903 36.3884 22.0978C36.9318 23.4053 37.2092 24.8071 37.2046 26.222C37.2025 32.1587 32.3492 36.9897 26.3862 36.9897ZM35.5935 17.0588C34.3875 15.8507 32.9526 14.8928 31.3719 14.2406C29.7912 13.5884 28.0962 13.2548 26.3851 13.2593C19.2114 13.2593 13.3709 19.0707 13.3687 26.2133C13.3654 28.4864 13.9646 30.7201 15.1058 32.6892L13.2593 39.4025L20.1593 37.6008C22.068 38.6358 24.207 39.1781 26.3807 39.1782H26.3862C33.5598 39.1782 39.4003 33.3667 39.4025 26.2231C39.4078 24.5208 39.0739 22.8344 38.4201 21.2614C37.7663 19.6883 36.8055 18.2599 35.5935 17.0588Z" fill="white"/>
</svg>
